<svg xmlns="http://www.w3.org/2000/svg" width="89.799" height="35.001" viewBox="0 0 89.799 35.001">
  <g id="그룹_383" data-name="그룹 383" transform="translate(-315.106 -372.973)">
    <g id="그룹_221" data-name="그룹 221" transform="translate(322.659 404.707)">
      <path id="패스_20" data-name="패스 20" d="M324.646,414.993a.383.383,0,0,1-.164-.029.238.238,0,0,1-.093-.077.246.246,0,0,1-.04-.106.813.813,0,0,1-.009-.119v-2.476a.821.821,0,0,1,.009-.119.246.246,0,0,1,.04-.106.23.23,0,0,1,.093-.076.37.37,0,0,1,.164-.03h.854a2.22,2.22,0,0,1,.427.038.887.887,0,0,1,.331.133.649.649,0,0,1,.214.255.931.931,0,0,1,.076.4.721.721,0,0,1-.123.42.66.66,0,0,1-.319.251.908.908,0,0,1,.2.1.844.844,0,0,1,.174.16.722.722,0,0,1,.12.218.822.822,0,0,1,.045.282v.038a.92.92,0,0,1-.081.412.628.628,0,0,1-.225.254.952.952,0,0,1-.348.132,2.432,2.432,0,0,1-.446.038Zm.043-2.892a.077.077,0,0,0-.053.017.09.09,0,0,0-.019.068v1.066h1.019a.794.794,0,0,0,.229-.034.667.667,0,0,0,.206-.1.5.5,0,0,0,.146-.172.524.524,0,0,0,.056-.249.56.56,0,0,0-.173-.444.724.724,0,0,0-.49-.15Zm-.072,2.561a.09.09,0,0,0,.019.068.077.077,0,0,0,.053.017h.854c.082,0,.172,0,.27-.011a.841.841,0,0,0,.272-.065.5.5,0,0,0,.208-.173.558.558,0,0,0,.083-.329v-.056a.576.576,0,0,0-.205-.45.67.67,0,0,0-.227-.124.938.938,0,0,0-.285-.043h-1.04Z" transform="translate(-324.34 -411.787)" fill="#989897"/>
      <path id="패스_21" data-name="패스 21" d="M333.73,414.817a1.2,1.2,0,0,1-.788.238,1.254,1.254,0,0,1-.811-.238.922.922,0,0,1-.293-.76v-2.064a.116.116,0,0,1,.038-.1.145.145,0,0,1,.1-.032.155.155,0,0,1,.1.032.114.114,0,0,1,.04.1v2.064a.737.737,0,0,0,.2.554.888.888,0,0,0,.633.189.835.835,0,0,0,.609-.189.751.751,0,0,0,.189-.554v-2.064a.118.118,0,0,1,.038-.1.147.147,0,0,1,.1-.032.157.157,0,0,1,.1.032.115.115,0,0,1,.041.1v2.064A.932.932,0,0,1,333.73,414.817Z" transform="translate(-325.705 -411.789)" fill="#989897"/>
      <path id="패스_22" data-name="패스 22" d="M340.236,414.787a1.879,1.879,0,0,0,.359-.032.8.8,0,0,0,.281-.106.532.532,0,0,0,.181-.191.6.6,0,0,0,.063-.284.478.478,0,0,0-.074-.271.676.676,0,0,0-.2-.194,1.354,1.354,0,0,0-.286-.14c-.11-.04-.225-.077-.347-.111s-.242-.072-.361-.115a1.419,1.419,0,0,1-.321-.161.782.782,0,0,1-.229-.24.667.667,0,0,1-.087-.354.732.732,0,0,1,.093-.387.7.7,0,0,1,.251-.244,1.075,1.075,0,0,1,.354-.128,2.315,2.315,0,0,1,.41-.036,1.819,1.819,0,0,1,.227.016c.083.011.165.027.246.045a1.643,1.643,0,0,1,.227.068,1.1,1.1,0,0,1,.174.083.18.18,0,0,1,.053.07.111.111,0,0,1-.007.1.093.093,0,0,1-.07.06.205.205,0,0,1-.12-.013c-.1-.039-.21-.08-.332-.121a1.245,1.245,0,0,0-.4-.061,1.179,1.179,0,0,0-.611.129.444.444,0,0,0-.213.41.477.477,0,0,0,.068.267.554.554,0,0,0,.185.17,1.352,1.352,0,0,0,.274.117l.335.1a4.827,4.827,0,0,1,.455.172,1.487,1.487,0,0,1,.329.2.753.753,0,0,1,.2.244.7.7,0,0,1,.068.315.88.88,0,0,1-.083.4.73.73,0,0,1-.233.273,1.008,1.008,0,0,1-.366.159,2.04,2.04,0,0,1-.478.052,1.849,1.849,0,0,1-.329-.029,2.264,2.264,0,0,1-.308-.078,1.753,1.753,0,0,1-.257-.106.707.707,0,0,1-.176-.123.148.148,0,0,1-.056-.112.169.169,0,0,1,.03-.088.127.127,0,0,1,.076-.048.15.15,0,0,1,.115.036,1.818,1.818,0,0,0,.168.1,1.3,1.3,0,0,0,.208.093,1.76,1.76,0,0,0,.242.068A1.241,1.241,0,0,0,340.236,414.787Z" transform="translate(-327.034 -411.776)" fill="#989897"/>
      <path id="패스_23" data-name="패스 23" d="M348.216,414.035h-1.465l-.293.875a.135.135,0,0,1-.077.091.193.193,0,0,1-.119,0,.188.188,0,0,1-.083-.051c-.03-.029-.034-.077-.011-.145l.977-2.794a.6.6,0,0,1,.032-.085.29.29,0,0,1,.055-.078.261.261,0,0,1,.1-.057.485.485,0,0,1,.157-.021.424.424,0,0,1,.153.023.307.307,0,0,1,.1.058.25.25,0,0,1,.056.076.707.707,0,0,1,.031.085l.977,2.794c.022.068.019.116-.011.145a.191.191,0,0,1-.083.051.193.193,0,0,1-.119,0,.137.137,0,0,1-.077-.091Zm-.73-2.017a.068.068,0,0,0-.076.051l-.578,1.72h1.3l-.573-1.72a.11.11,0,0,0-.024-.036A.068.068,0,0,0,347.486,412.018Z" transform="translate(-328.312 -411.772)" fill="#989897"/>
      <path id="패스_24" data-name="패스 24" d="M353.852,412.014a.2.2,0,0,1,.036-.115.145.145,0,0,1,.126-.051.346.346,0,0,1,.091.011.216.216,0,0,1,.076.036.379.379,0,0,1,.074.072,1.2,1.2,0,0,1,.085.119l1.639,2.471v-2.585a.118.118,0,0,1,.038-.1.147.147,0,0,1,.1-.032.155.155,0,0,1,.1.032.115.115,0,0,1,.041.1v2.875a.144.144,0,0,1-.038.095.136.136,0,0,1-.11.045.338.338,0,0,1-.132-.024.24.24,0,0,1-.1-.092l-1.746-2.62v2.6a.114.114,0,0,1-.04.095.151.151,0,0,1-.1.032.141.141,0,0,1-.1-.032.117.117,0,0,1-.038-.095Z" transform="translate(-329.714 -411.785)" fill="#989897"/>
      <path id="패스_25" data-name="패스 25" d="M368.806,412.725a.115.115,0,0,1-.1-.034.355.355,0,0,1-.036-.144.592.592,0,0,0-.045-.164.425.425,0,0,0-.124-.161.7.7,0,0,0-.23-.123,1.121,1.121,0,0,0-.36-.049.877.877,0,0,0-.336.057.629.629,0,0,0-.224.153.6.6,0,0,0-.128.218.888.888,0,0,0-.044.254c-.006.107-.01.221-.011.341s0,.24,0,.361,0,.237,0,.352,0,.223.011.325a.678.678,0,0,0,.21.5.816.816,0,0,0,.568.18,1.511,1.511,0,0,0,.29-.025.647.647,0,0,0,.228-.087.424.424,0,0,0,.149-.158.526.526,0,0,0,.057-.24.151.151,0,0,1,.038-.123.17.17,0,0,1,.106-.029.155.155,0,0,1,.1.029.165.165,0,0,1,.038.132.814.814,0,0,1-.051.285.6.6,0,0,1-.166.24.857.857,0,0,1-.3.168,1.469,1.469,0,0,1-.465.064,1.587,1.587,0,0,1-.419-.053.853.853,0,0,1-.335-.174A.87.87,0,0,1,367,414.5a1.249,1.249,0,0,1-.093-.467q-.017-.649,0-1.253a1.188,1.188,0,0,1,.093-.454.835.835,0,0,1,.541-.474,1.348,1.348,0,0,1,.38-.053,1.44,1.44,0,0,1,.416.057,1.057,1.057,0,0,1,.321.157.749.749,0,0,1,.208.234.569.569,0,0,1,.074.282.375.375,0,0,1-.021.145C368.9,412.709,368.865,412.725,368.806,412.725Z" transform="translate(-332.089 -411.778)" fill="#989897"/>
      <path id="패스_26" data-name="패스 26" d="M375.662,414.035H374.2l-.294.875a.136.136,0,0,1-.076.091.2.2,0,0,1-.119,0,.188.188,0,0,1-.083-.051c-.029-.029-.034-.077-.011-.145l.977-2.794a.884.884,0,0,1,.032-.085.276.276,0,0,1,.056-.078.248.248,0,0,1,.1-.057.481.481,0,0,1,.157-.021.428.428,0,0,1,.153.023.3.3,0,0,1,.095.058.236.236,0,0,1,.056.076.719.719,0,0,1,.032.085l.977,2.794c.023.068.02.116-.011.145a.189.189,0,0,1-.083.051.193.193,0,0,1-.119,0,.135.135,0,0,1-.077-.091Zm-.73-2.017a.069.069,0,0,0-.077.051l-.577,1.72h1.3l-.573-1.72a.1.1,0,0,0-.024-.036A.067.067,0,0,0,374.932,412.018Z" transform="translate(-333.31 -411.772)" fill="#989897"/>
      <path id="패스_27" data-name="패스 27" d="M381.892,412.1H380.86a.126.126,0,0,1-.087-.032.133.133,0,0,1,0-.182.126.126,0,0,1,.087-.032H383.2a.126.126,0,0,1,.087.032.134.134,0,0,1,0,.182.126.126,0,0,1-.087.032h-1.028v2.8a.115.115,0,0,1-.04.1.162.162,0,0,1-.1.032.154.154,0,0,1-.1-.032.118.118,0,0,1-.038-.1Z" transform="translate(-334.61 -411.787)" fill="#989897"/>
      <path id="패스_28" data-name="패스 28" d="M393.878,413.252h1.49a.128.128,0,0,1,.087.032.133.133,0,0,1,0,.182.128.128,0,0,1-.087.032h-1.49v1.4a.115.115,0,0,1-.04.1.163.163,0,0,1-.1.032.151.151,0,0,1-.1-.032.119.119,0,0,1-.038-.1v-2.713a.826.826,0,0,1,.009-.119.247.247,0,0,1,.04-.106.23.23,0,0,1,.093-.076.37.37,0,0,1,.164-.03h1.461a.128.128,0,0,1,.087.032.133.133,0,0,1,0,.182.128.128,0,0,1-.087.032H393.95a.077.077,0,0,0-.053.017.09.09,0,0,0-.019.068Z" transform="translate(-336.952 -411.787)" fill="#989897"/>
      <path id="패스_29" data-name="패스 29" d="M401.892,414.035h-1.465l-.294.875a.134.134,0,0,1-.076.091.2.2,0,0,1-.119,0,.186.186,0,0,1-.082-.051c-.03-.029-.034-.077-.011-.145l.977-2.794a.892.892,0,0,1,.032-.085.276.276,0,0,1,.056-.078.248.248,0,0,1,.1-.057.481.481,0,0,1,.157-.021.428.428,0,0,1,.153.023.3.3,0,0,1,.095.058.225.225,0,0,1,.056.076.6.6,0,0,1,.032.085l.977,2.794c.023.068.02.116-.011.145a.189.189,0,0,1-.083.051.193.193,0,0,1-.119,0,.135.135,0,0,1-.077-.091Zm-.73-2.017a.069.069,0,0,0-.077.051l-.577,1.72h1.3l-.573-1.72a.109.109,0,0,0-.023-.036A.069.069,0,0,0,401.162,412.018Z" transform="translate(-338.086 -411.772)" fill="#989897"/>
      <path id="패스_30" data-name="패스 30" d="M407.652,411.967a.118.118,0,0,1,.038-.1.146.146,0,0,1,.1-.031.157.157,0,0,1,.1.031.116.116,0,0,1,.04.1v2.888a.116.116,0,0,1-.04.095.153.153,0,0,1-.1.032.143.143,0,0,1-.1-.032.118.118,0,0,1-.038-.095Z" transform="translate(-339.511 -411.784)" fill="#989897"/>
      <path id="패스_31" data-name="패스 31" d="M413.234,413.587v1.27a.114.114,0,0,1-.04.095.152.152,0,0,1-.1.032.143.143,0,0,1-.1-.032.117.117,0,0,1-.038-.095v-2.671a.834.834,0,0,1,.009-.119.247.247,0,0,1,.04-.106.23.23,0,0,1,.093-.076.371.371,0,0,1,.164-.03h.785a2.351,2.351,0,0,1,.452.04.959.959,0,0,1,.355.141.664.664,0,0,1,.231.272,1.007,1.007,0,0,1,.083.439.828.828,0,0,1-.065.34.756.756,0,0,1-.18.254.841.841,0,0,1-.268.166,1.142,1.142,0,0,1-.322.072l.756,1.189a.168.168,0,0,1,.027.11.116.116,0,0,1-.065.089.127.127,0,0,1-.1.015.162.162,0,0,1-.1-.074l-.833-1.321Zm0-.246h.936a.784.784,0,0,0,.546-.164.562.562,0,0,0,.178-.435.753.753,0,0,0-.051-.29.561.561,0,0,0-.141-.2.574.574,0,0,0-.213-.114.97.97,0,0,0-.268-.036h-.915a.079.079,0,0,0-.054.017.093.093,0,0,0-.019.068Z" transform="translate(-340.477 -411.787)" fill="#989897"/>
    </g>
    <g id="그룹_223" data-name="그룹 223" transform="translate(315.106 372.972)">
      <path id="패스_32" data-name="패스 32" d="M358.1,389.548v6.366a3.2,3.2,0,0,1-3.2,3.2h-.272a1.038,1.038,0,0,1-1.038-1.038V376.889a1.038,1.038,0,0,1,1.038-1.038h.81a2.659,2.659,0,0,1,2.659,2.659v5.123a1.038,1.038,0,0,0,1.038,1.037h1.069a1.038,1.038,0,0,1,1.038,1.038v1.764a1.038,1.038,0,0,1-1.038,1.038h-1.069A1.038,1.038,0,0,0,358.1,389.548Z" transform="translate(-322.114 -373.496)" fill="#f7a54b"/>
      <rect id="사각형_733" data-name="사각형 733" width="22.481" height="2.921" rx="1.439" transform="translate(40.897 11.091)" fill="#f7a54b"/>
      <path id="패스_33" data-name="패스 33" d="M386.083,402.576H370.076a2.927,2.927,0,0,1-2.927-2.927v-3.515a.487.487,0,0,1,.487-.487H381.3a.487.487,0,0,0,.487-.487h0a.487.487,0,0,0-.487-.487H367.636a.487.487,0,0,1-.487-.487v-2.031a.487.487,0,0,1,.487-.487h16.112a2.544,2.544,0,0,1,2.544,2.544V398a.487.487,0,0,1-.487.487H372.171a.487.487,0,0,0-.487.487v.111a.488.488,0,0,0,.487.487h13.912a.487.487,0,0,1,.487.487v2.031A.487.487,0,0,1,386.083,402.576Z" transform="translate(-324.583 -376.377)" fill="#f7a54b"/>
      <path id="패스_34" data-name="패스 34" d="M419.387,397.719v-20.51a1.376,1.376,0,0,1,1.376-1.375h.354a2.778,2.778,0,0,1,2.778,2.778v17.35a3.132,3.132,0,0,1-3.132,3.132h0A1.375,1.375,0,0,1,419.387,397.719Z" transform="translate(-334.095 -373.493)" fill="#f7a54b"/>
      <path id="패스_35" data-name="패스 35" d="M315.106,390.281V377.349a1.463,1.463,0,0,1,1.463-1.464h1.583a1.434,1.434,0,0,1,1.434,1.434v11.859a5.682,5.682,0,0,0,5.682,5.683h1.939a1.281,1.281,0,0,1,1.282,1.282v.961a1.735,1.735,0,0,1-1.735,1.736h-3.091A8.557,8.557,0,0,1,315.106,390.281Z" transform="translate(-315.106 -373.503)" fill="#4ba6df"/>
      <g id="그룹_222" data-name="그룹 222" transform="translate(8.765 2.351)">
        <path id="패스_36" data-name="패스 36" d="M332.016,385.638h-5.1a1.1,1.1,0,0,0-1.094,1.1v2.039a1.1,1.1,0,0,0,1.094,1.1h5.1a1.091,1.091,0,0,1,1.081.961v-6.151A1.091,1.091,0,0,1,332.016,385.638Z" transform="translate(-325.822 -377.455)" fill="#f7a54b"/>
        <path id="패스_37" data-name="패스 37" d="M345.856,394.822h-3.365a3.294,3.294,0,0,1-3.294-3.295V377.083a1.236,1.236,0,0,0-1.236-1.236H336.1a1.379,1.379,0,0,0-1.379,1.379v15a6.571,6.571,0,0,0,6.571,6.571h4.575a1.4,1.4,0,0,0,1.4-1.4v-1.166A1.409,1.409,0,0,0,345.856,394.822Z" transform="translate(-327.442 -375.847)" fill="#4ba6df"/>
      </g>
      <path id="패스_38" data-name="패스 38" d="M385.581,383.375H369.866a2.717,2.717,0,0,1-2.717-2.716v-2.025a2.715,2.715,0,0,1,2.715-2.715h15.718a.71.71,0,0,1,.71.71v1.585a.71.71,0,0,1-.71.71H372.366a.71.71,0,0,0-.71.709h0a.71.71,0,0,0,.71.71h13.216a.71.71,0,0,1,.71.709v1.614A.71.71,0,0,1,385.581,383.375Z" transform="translate(-324.583 -373.509)" fill="#4ba6df"/>
      <path id="패스_39" data-name="패스 39" d="M407.224,379.537h0Z" transform="translate(-331.876 -374.168)" fill="none"/>
      <path id="패스_40" data-name="패스 40" d="M410.567,385.352c-.032-.052-.073-.11-.1-.169a.519.519,0,0,1-.025-.344,6.974,6.974,0,0,0,.415-4.077,28.559,28.559,0,0,0-2.394-6.295h0l-.7-1.193.047.079a.69.69,0,0,0-1.076-.206,1.319,1.319,0,0,0-.135.127l-1.763,1.667h0a.507.507,0,0,1-.329.147l-2.308.023h0a.528.528,0,0,1-.313-.094l-2.021-1.678h0a.653.653,0,0,0-1,.11h0l-.62.9a18.381,18.381,0,0,0-2.419,6.987,5.017,5.017,0,0,0,3.231,5.329c-.039-.016,1.921-.233,2.206-.951a1.7,1.7,0,0,0-.95-2.206,2,2,0,0,1-1.2-1.641,10.18,10.18,0,0,1,1.062-4.258c.027-.115.182-.24.357,0l.45.564a.752.752,0,0,0,.589.218l3.6-.006c.148-.011.58-.008.752-.318l.265-.522c.115-.168.224-.11.267-.029a9.346,9.346,0,0,1,1.184,3.262,4.593,4.593,0,0,1-.265,2.336,2.726,2.726,0,0,0,.092,2.853c.91,1.637,2.99,4.144,2.057,7.883a3.457,3.457,0,0,1-3.981,2.885,3.412,3.412,0,0,1-.642-.257,1.253,1.253,0,0,0-.643-.253,1.157,1.157,0,0,0-.514.1c-.154.065-.411.146-.411.146a4.067,4.067,0,0,1-3.127-.157c-1.329-.782-1.865-2.594-.7-6.876.353-1.291.029-2.03-1.053-2.252a1.783,1.783,0,0,0-1.963,1.085c-1.932,4.735-1.161,9.174,1.944,11a6.919,6.919,0,0,0,3.238.844,7.188,7.188,0,0,0,2.19-.133,2.1,2.1,0,0,1,1.1.053c2.814.628,6.061-.124,7.458-4.9C413.7,390.761,411.717,387.231,410.567,385.352Z" transform="translate(-329.734 -372.972)" fill="#4ba6df"/>
    </g>
  </g>
</svg>
