<svg xmlns="http://www.w3.org/2000/svg" xmlns:xlink="http://www.w3.org/1999/xlink" width="100" height="100" viewBox="0 0 100 100">
  <defs>
    <clipPath id="clip-path">
      <rect id="calendar-clock_색상변경" width="100" height="100" rx="17" transform="translate(828 607)" fill="#be4242"/>
    </clipPath>
  </defs>
  <g id="마스크_그룹_4" data-name="마스크 그룹 4" transform="translate(-828 -607)" clip-path="url(#clip-path)">
    <path id="이벤트_인포그래픽" data-name="이벤트 인포그래픽" d="M38.437,37.006c-5.482-5.85-4.6-11.333-2.5-15.307a12.486,12.486,0,0,1,5.556-5.556c4.747-2.355,9.272-1.141,12.474,3.68a76.41,76.41,0,0,1,4.195,8.095c.258.478.442.993.736,1.619.773-2.245,1.325-4.305,2.171-6.292,1.545-3.532,3.68-6.55,7.506-7.8,6.071-1.987,13.393,2.98,14.534,9.751a12.221,12.221,0,0,1-4.894,12.51c-4.857,3.79-10.487,5-16.411,5.078-10.3.11-20.605.074-30.908,0-1.656,0-2.061.478-2.061,2.1q.11,21.139,0,42.278c0,1.582.442,2.024,1.95,1.987,5.409-.074,10.781-.037,16.19-.037.552,0,1.067-.037,1.84-.074V49c0-.552-.037-1.141,0-1.693a2.556,2.556,0,0,1,2.428-2.576,2.438,2.438,0,0,1,2.833,2.1,9.547,9.547,0,0,1,.147,2.061V89H63.2V49.112c0-.515-.037-.993,0-1.509.147-1.913,1.288-2.98,2.944-2.907,1.545.11,2.5,1.251,2.5,3.091V88.961c.515.037.883.11,1.214.11,5.7,0,11.406-.037,17.11.037,1.141,0,1.656-.258,1.656-1.545q-.055-21.58,0-43.234c0-1.251-.442-1.619-1.619-1.582-2.024.074-4.047.037-6.071,0s-3.164-1.1-3.128-2.833c.037-1.656,1.177-2.723,3.054-2.76,2.392-.037,4.783-.074,7.175,0a5.991,5.991,0,0,1,6,6.255q.055,22.574,0,45.111a5.9,5.9,0,0,1-6.108,6.108q-29.252.055-58.5,0a5.922,5.922,0,0,1-6.108-6.292q-.055-22.353,0-44.706A6.045,6.045,0,0,1,29.68,37.19c2.76-.037,5.519-.037,8.279-.037A.891.891,0,0,0,38.437,37.006Zm23.917.294c1.877-.221,3.128-.294,4.305-.515a16.125,16.125,0,0,0,9.788-5.041c1.766-2.024,1.84-4.415.846-6.844a6.433,6.433,0,0,0-5.556-4.268c-2.649-.258-4.231,1.545-5.041,3.643C65.077,28.4,63.863,32.7,62.354,37.3Zm-7.1-.11c-1.325-5.409-2.98-10.413-6.145-14.718-.957-1.325-2.245-2.208-3.937-1.766-2.539.626-4.047,2.465-4.967,4.857A5.8,5.8,0,0,0,41.381,32C45.1,35.9,49.954,36.822,55.253,37.19Z" transform="translate(819.325 602.182)" fill="#353230"/>
  </g>
</svg>
