<svg xmlns="http://www.w3.org/2000/svg" xmlns:xlink="http://www.w3.org/1999/xlink" width="100" height="100" viewBox="0 0 100 100">
  <defs>
    <clipPath id="clip-path">
      <rect id="calendar-clock_색상변경" width="100" height="100" rx="17" transform="translate(960 581)" fill="#be4242"/>
    </clipPath>
  </defs>
  <g id="마스크_그룹_5" data-name="마스크 그룹 5" transform="translate(-960 -581)" clip-path="url(#clip-path)">
    <g id="지도_인포그래픽" data-name="지도 인포그래픽" transform="translate(946.555 570.295)">
      <path id="패스_577" data-name="패스 577" d="M57.081,72.766c-3.214-4.2-6.3-8.014-9.128-12a36.289,36.289,0,0,1-6.428-14.913A22,22,0,0,1,58.667,20.913c12.042-2.486,24.3,4.971,26.355,16.542.771,4.371.086,9,.043,13.67,3.514-1.628,4.971,1.971,7.028,4.457,6.685,8.185,13.285,16.413,19.927,24.6,2.486,3.085,1.714,5.057-2.271,5.828L38.654,100.535c-4.285.857-4.5.771-6.685-3.128-5.828-10.413-11.656-20.784-17.441-31.2C12.556,62.7,13.2,61.281,17.1,60.6c6.642-1.157,13.285-2.314,19.927-3.257a4.655,4.655,0,0,1,3.6,1.071c.557.557-.086,2.228-.129,3.385a4.711,4.711,0,0,0,.043,2.057c1.671,3.3,3.428,6.557,5.314,9.771a2.556,2.556,0,0,0,2.014.986C50.867,74.137,53.824,73.451,57.081,72.766Zm6.128-.6c4.414-5.914,8.356-10.756,11.785-15.942a35.337,35.337,0,0,0,4.414-9.471,15.768,15.768,0,0,0-8.571-19.07c-7.242-3.428-16.2-1.328-20.784,4.928-4.328,5.957-4.328,12.47-.857,18.47C53.224,58.153,58.2,64.709,63.209,72.166ZM30.769,83.779c1.843,3.257,3.643,6.042,5.014,9.042.943,2.1,2.228,2.4,4.157,1.843.643-.171,1.328-.3,1.971-.429,5.4-1.114,10.8-2.228,16.413-3.428-1.114-2.7-2.443-4.585-5.142-5.528-2.571-.857-4.971-2.228-7.5-3.257a5.964,5.964,0,0,0-3.043-.6C38.783,82.065,35.012,82.922,30.769,83.779Zm23.355-4.285c5.014,1.114,7.285,4.8,9.428,8.742a2.546,2.546,0,0,0,1.971,1.157c5.7-1.071,11.356-2.314,17.4-3.557-2.271-3.557-4.285-6.857-6.428-10.071-.3-.429-1.2-.9-1.628-.729-3.257,1.028-7.114.257-9.728,3.257a2.114,2.114,0,0,1-1.843.557C60.081,76.88,57.21,78.808,54.124,79.494Zm51.553,1.714c-2.785-3.471-5.185-6.514-7.671-9.514a2.563,2.563,0,0,0-1.928-.9c-4.628.814-9.256,1.8-14.27,2.785,2.314,3.6,4.285,6.814,6.428,9.942a2.594,2.594,0,0,0,2.186.729C95.35,83.308,100.278,82.279,105.677,81.208ZM20.7,65.695c2.271,4.157,4.371,7.971,6.6,11.742a2.3,2.3,0,0,0,1.886.9c3.814-.643,7.585-1.5,11.613-2.314-1.971-3.685-3.857-6.985-5.528-10.413a2.909,2.909,0,0,0-3.685-1.843C28.069,64.495,24.6,65.009,20.7,65.695Zm61.324,2.143c3.171-.643,6.9-1.371,11.056-2.186-2.143-2.657-3.985-4.928-5.828-7.2-1.114-1.371-4.671-1.971-5.957-.814a3.635,3.635,0,0,0-1.243,2.743A63.08,63.08,0,0,0,82.022,67.838Z" fill="#353230"/>
      <path id="패스_578" data-name="패스 578" d="M63.338,53.781A11.175,11.175,0,0,1,52.324,42.511a11.143,11.143,0,0,1,22.284.257A11.149,11.149,0,0,1,63.338,53.781ZM68.995,42.64a5.486,5.486,0,0,0-10.971,0,5.626,5.626,0,0,0,5.485,5.7A5.684,5.684,0,0,0,68.995,42.64Z" fill="#353230"/>
    </g>
  </g>
</svg>
