<svg xmlns="http://www.w3.org/2000/svg" xmlns:xlink="http://www.w3.org/1999/xlink" width="100" height="100" viewBox="0 0 100 100">
  <defs>
    <clipPath id="clip-path">
      <rect id="calendar-clock_색상변경" width="100" height="100" rx="17" transform="translate(687 618)" fill="#be4242"/>
    </clipPath>
  </defs>
  <g id="마스크_그룹_3" data-name="마스크 그룹 3" transform="translate(-687 -618)" clip-path="url(#clip-path)">
    <g id="예약확인_인포그래픽" data-name="예약확인 인포그래픽" transform="translate(662.516 594.805)">
      <path id="패스_574" data-name="패스 574" d="M94.488,50.218c-.217.036-.18.253-.253.361a2.948,2.948,0,0,1-3.392,1.66,3.039,3.039,0,0,1-2.237-2.923c0-1.8-.072-3.645,0-5.449a8.82,8.82,0,0,0-9.021-9.021c-9.635.072-19.233,0-28.868.036-4.15,0-8.3-.108-12.413.072a8.694,8.694,0,0,0-7.758,7A39.869,39.869,0,0,0,30.4,46.1c0,.325.108.4.4.4H56.167c1.732,0,2.815.722,3.212,2.165a2.909,2.909,0,0,1-2.345,3.645c-.361.036-.722.072-1.083.072H31.16c-.577,0-.794.108-.794.758.036,8.444,0,16.888.036,25.332A8.674,8.674,0,0,0,37.15,87.1a7.548,7.548,0,0,0,2.021.217H50.646a2.926,2.926,0,0,1,2.887,2.057,2.876,2.876,0,0,1-1.083,3.248,2.905,2.905,0,0,1-1.732.541H38.774A14.634,14.634,0,0,1,24.918,82.117a14.892,14.892,0,0,1-.433-3.572V43.723a14.537,14.537,0,0,1,12.81-14.542,25.777,25.777,0,0,1,4.078-.108c.433,0,.613-.072.577-.541-.036-.758,0-1.516,0-2.237a2.9,2.9,0,0,1,1.912-2.851c.108-.036.217,0,.289-.144h1.371a2.963,2.963,0,0,1,2.237,2.454,13.174,13.174,0,0,1,.036,2.67c-.036.577.18.686.722.686,4.474-.036,8.913,0,13.387,0h8.588c.433,0,.613-.072.577-.541-.036-.577,0-1.155,0-1.7A3.217,3.217,0,0,1,73.379,23.3H74.75c.036.036.072.108.108.144a2.809,2.809,0,0,1,2.057,2.923c0,.686.036,1.371,0,2.057-.036.541.108.722.686.722a23.885,23.885,0,0,1,3.933.108,14.58,14.58,0,0,1,12.3,10.537c.217.758.361,1.516.541,2.273C94.488,44.661,94.488,47.44,94.488,50.218Z" transform="translate(14.998 14.967)" fill="#353230"/>
      <path id="패스_575" data-name="패스 575" d="M107,87.408a13.705,13.705,0,0,0-.505,2.418,20.322,20.322,0,1,1,.217-8.263A6.136,6.136,0,0,0,107,83.186C107,84.557,107,86,107,87.408Zm-5.846-2.2A14.542,14.542,0,1,0,86.577,99.713,14.461,14.461,0,0,0,101.155,85.207Z" transform="translate(2.486 2.496)" fill="#353230"/>
      <path id="패스_576" data-name="패스 576" d="M91.186,87.2V84.35a2.956,2.956,0,0,1,3-2.959,2.878,2.878,0,0,1,2.851,3.031v4.042a1.045,1.045,0,0,0,.361.83c.577.541,1.155,1.119,1.7,1.7a2.923,2.923,0,1,1-4.15,4.114c-.938-.938-1.876-1.876-2.815-2.779a3.128,3.128,0,0,1-.938-2.346C91.186,89.005,91.186,88.1,91.186,87.2Z" transform="translate(-5.01 -2.458)" fill="#353230"/>
    </g>
  </g>
</svg>
